# xmcd
#
# Track frame offsets:
#	150
#	3500
#	20212
#	37262
#	52925
#	69137
#	88137
#	111062
#	127425
#	143212
#	155550
#	174812
#	188637
#	211187
#	223950
#	239912
#	260912
#	277287
#	302937
#
# Disc length: 4384
#
# Revision: 2
# Processed by: cddbd v1.5.1PL0 Copyright (c) Steve Scherf et al.
# Submitted via: EasyCDDAExtractor 7.0.5.1
# Normalized: r1:DSETVAR1
#
DISCID=2f111e13
DTITLE=Various Artist - The Very Best of Christmas Hits vol 2
DYEAR=1995
DGENRE=Gospel
TTITLE0=John Lennon and Yoko Ono - Track 1Prologue: Happy X-mas
TTITLE1=Slade - Merry Christmas Everybody
TTITLE2=paul Mc Cartney - Wonderful Christmas Time
TTITLE3=Boney M. - Jingle Bells
TTITLE4=Joy - It's Christmas Time, part 1
TTITLE5=Cliff Richard - The ChristmasSong (Merry Christmas To You)
TTITLE6=Chris De Burgh - A Spaceman Came Travelling
TTITLE7=Jordy - Des Cadeuaux Pour Noel
TTITLE8=Joy - Holy Night
TTITLE9=Shakin Stevens - Blue Christmas
TTITLE10=Quenn - Thank God It's Christmas
TTITLE11=Boney M. - The First Noel
TTITLE12=Joy - Merry Christmas Mix
TTITLE13=Mike Oldfield - In Dulci Jubilo
TTITLE14=John Lennon and Yoko Ono - Happy Christmas
TTITLE15=Roy Wood and Wizzard - I Wish It Could be Christmas Everybody
TTITLE16=Joy - it's Christmas Time, part 2
TTITLE17=Cliff Richard - Silent Night
TTITLE18=Christmas Band - We Are The World
EXTD=
EXTT0=
EXTT1=
EXTT2=
EXTT3=
EXTT4=
EXTT5=
EXTT6=
EXTT7=
EXTT8=
EXTT9=
EXTT10=
EXTT11=
EXTT12=
EXTT13=
EXTT14=
EXTT15=
EXTT16=
EXTT17=
EXTT18=
PLAYORDER=
